<svg width="419" height="337" viewBox="0 0 419 337" fill="none" xmlns="http://www.w3.org/2000/svg">
<path d="M346.343 67.0964C347.322 65.1041 348.197 63.1826 348.954 61.3294C360.952 70.6901 371.696 85.217 375.586 91.3263C369.085 73.1138 356.787 60.5453 350.991 55.7765C352.048 52.441 352.74 49.3543 353.092 46.498C360.717 49.0676 376.043 56.8226 383.106 67.0964C380.364 61.3281 370.521 47.9199 352.936 36.6514C351.2 26.8742 344.62 20.8354 337.022 17.1074L337.152 16.9657C332.401 9.03386 308.902 7.45977 291.239 10.3351C287.426 10.4766 282.753 10.7236 276.996 11.1171L262.883 12.4748C251.16 13.6028 236.63 14.9902 223.523 16.1302C168.379 20.9253 156.016 24.8195 109.893 69.603C102.648 71.5525 84.4885 80.2975 69.7887 99.6814C55.0889 119.065 39.1489 129.481 33.0261 132.266C42.1907 136.85 59.3056 142.18 77.0211 140.648C65.9505 154.577 47.3082 176.647 23 189.081C29.4099 191.031 43.8878 194.93 50.5719 194.93C48.6267 208.855 46.7338 242.387 54.7495 265.113L56.1072 264.302L58.1568 263.128C64.1229 259.767 72.0341 255.313 74.8017 247.567L74.7756 247.75C72.2691 267.818 68.209 300.323 95.6895 336.967L406.383 336.968L406.5 336.967C378.798 312.64 366.395 297.059 360.012 281.823C361.5 276.921 362.27 270.625 361.382 262.606C361.2 261.004 360.938 259.452 360.586 257.959C362.858 249.571 365.651 243.66 368.145 238.429L368.184 238.374C372.348 229.609 375.612 222.723 373.915 209.133C383.941 227.515 393.132 229.186 393.132 229.186C393.132 229.186 390.625 194.93 376.422 153.154C371.226 137.863 363.719 128.309 355.925 118.388V118.371L355.886 118.298C352.714 114.245 349.489 110.123 346.343 105.53C338.81 94.5162 340.508 80.2883 342.27 72.6056L346.343 67.0964Z" fill="white"/>
<path d="M346.343 67.0964C347.322 65.1041 348.197 63.1826 348.954 61.3294C360.952 70.6901 371.696 85.217 375.586 91.3263C369.085 73.1138 356.787 60.5453 350.991 55.7765C352.048 52.441 352.74 49.3543 353.092 46.498C360.717 49.0676 376.043 56.8226 383.106 67.0964C380.364 61.3281 370.521 47.9199 352.936 36.6514C351.2 26.8742 344.62 20.8354 337.022 17.1074L337.152 16.9657C332.401 9.03386 308.902 7.45977 291.239 10.3351C287.426 10.4766 282.753 10.7236 276.996 11.1171L262.883 12.4748C251.16 13.6028 236.63 14.9902 223.523 16.1302C168.379 20.9253 156.016 24.8195 109.893 69.603C102.648 71.5525 84.4885 80.2975 69.7887 99.6814C55.0889 119.065 39.1489 129.481 33.0261 132.266C42.1907 136.85 59.3056 142.18 77.0211 140.648C65.9505 154.577 47.3082 176.647 23 189.081C29.4099 191.031 43.8878 194.93 50.5719 194.93C48.6267 208.855 46.7338 242.387 54.7495 265.113L56.1072 264.302L58.1568 263.128C64.1229 259.767 72.0341 255.313 74.8017 247.567L74.7756 247.75C72.2691 267.818 68.209 300.323 95.6895 336.967L406.383 336.968L406.5 336.967C378.798 312.64 366.395 297.059 360.012 281.823C361.5 276.921 362.27 270.625 361.382 262.606C361.2 261.004 360.938 259.452 360.586 257.959C362.858 249.571 365.651 243.66 368.145 238.429L368.184 238.374C372.348 229.609 375.612 222.723 373.915 209.133C383.941 227.515 393.132 229.186 393.132 229.186C393.132 229.186 390.625 194.93 376.422 153.154C371.226 137.863 363.719 128.309 355.925 118.388V118.371L355.886 118.298C352.714 114.245 349.489 110.123 346.343 105.53C338.81 94.5162 340.508 80.2883 342.27 72.6056L346.343 67.0964Z" fill="white"/>
<path fill-rule="evenodd" clip-rule="evenodd" d="M350.99 55.7765C351.102 55.4245 351.209 55.0753 351.313 54.7288C351.491 54.1318 351.657 53.5429 351.812 52.9621C352.384 50.81 352.794 48.7685 353.049 46.8319C353.064 46.7202 353.078 46.609 353.092 46.498C355.246 47.2241 358.015 48.3642 361.04 49.8582C368.718 53.6513 378.038 59.7257 383.105 67.0965C380.523 61.6633 371.64 49.4522 355.922 38.6354C354.952 37.9681 353.957 37.3061 352.935 36.6514C351.78 30.1477 348.482 25.2982 344.167 21.6826C342.173 20.0119 339.962 18.6046 337.644 17.4194C337.437 17.3137 337.23 17.2097 337.021 17.1074L337.152 16.9657C337.141 16.9471 337.129 16.9286 337.118 16.9101C336.359 15.6714 335.142 14.5888 333.559 13.6549C333.327 13.5179 333.087 13.384 332.839 13.2533C332.054 12.8394 331.194 12.4575 330.268 12.1067C320.796 8.52042 304.397 8.19294 291.238 10.3351C287.426 10.4766 282.752 10.7236 276.995 11.1171L262.883 12.4749C251.159 13.6028 236.629 14.9902 223.522 16.1302C168.378 20.9253 156.015 24.8195 109.893 69.603C102.647 71.5525 84.4877 80.2975 69.788 99.6814C59.9076 112.71 49.4669 121.687 41.8237 127.019C38.0955 129.62 35.0328 131.353 33.0254 132.266C35.7119 133.61 39.0815 135.018 42.9492 136.298C49.5457 138.481 57.5911 140.294 66.1666 140.785C69.7154 140.988 73.355 140.965 77.0204 140.648C74.9347 143.272 72.5804 146.185 69.97 149.268C60.6994 160.218 48.1998 173.313 33.0422 183.229C29.8133 185.341 26.4639 187.309 22.9993 189.081C25.7536 189.919 29.9975 191.117 34.4726 192.21C37.0781 192.847 39.7619 193.448 42.2757 193.923C45.4927 194.53 48.4313 194.93 50.5712 194.93C50.2508 197.223 49.9319 200.048 49.6584 203.269C48.4636 217.341 48.1361 238.969 52.3466 256.827C52.472 257.359 52.6014 257.887 52.7349 258.412C52.7716 258.556 52.8086 258.7 52.8459 258.844C53.407 261.004 54.0391 263.101 54.7487 265.113L56.1065 264.302L58.1561 263.128L58.1647 263.124L58.1657 263.123C59.4206 262.416 60.7612 261.661 62.1218 260.837C63.1293 260.226 64.1477 259.578 65.1503 258.884C69.1805 256.094 72.9553 252.56 74.7366 247.744C74.7584 247.685 74.7798 247.626 74.801 247.567L74.7749 247.75C74.2054 252.309 73.5558 257.511 73.214 263.257C72.0577 282.699 74.4268 308.377 95.3557 336.521H85.1066C67.8678 311.117 64.3519 287.633 64.6346 269.057C63.8613 269.504 63.1296 269.916 62.458 270.295L62.3069 270.38L62.2573 270.408L60.3251 271.514L50.2663 277.523L46.8694 267.892C42.4324 255.312 40.865 240.229 40.5715 226.905C40.3704 217.773 40.7631 209.155 41.3599 202.251C39.1362 201.846 36.8903 201.361 34.7956 200.876C29.3268 199.608 23.9213 198.095 20.5681 197.075L0.787109 191.059L19.1943 181.643C35.3531 173.377 49.0106 160.38 59.5176 148.565C47.0993 147.022 36.2303 143.211 29.2882 139.739L13.6318 131.909L29.566 124.661C34.3253 122.496 49.1979 113.005 63.1306 94.6328C77.7906 75.3015 95.7912 65.4848 105.519 62.2064C127.784 40.6708 143.023 27.9342 159.862 20.267C177.099 12.419 195.363 10.1922 222.798 7.80653C235.863 6.67016 250.358 5.28617 262.082 4.15814L276.31 2.78935L276.425 2.78147C281.998 2.40053 286.599 2.1531 290.416 2.00514C299.829 0.524315 310.675 0.196047 320.017 1.30037C324.765 1.86156 329.447 2.82923 333.473 4.38719C336.702 5.63716 340.384 7.60124 343.016 10.82C350.397 14.9523 357.372 21.4861 360.302 31.5079C377.291 43.1088 387.337 56.5372 390.651 63.51L376.22 71.8296C375.334 70.5417 374.229 69.2546 372.949 67.9882C376.887 73.7821 380.651 80.6656 383.454 88.5174L368.538 95.8141C365.74 91.421 359.113 82.3619 351.238 74.5293L350.063 76.1184C348.642 83.3514 348.207 93.4509 353.235 100.808C356.21 105.15 359.275 109.073 362.464 113.147L362.917 113.725L362.98 113.844C370.658 123.618 378.754 134.052 384.332 150.466C391.604 171.854 395.876 191.297 398.333 205.402C399.563 212.461 400.342 218.2 400.815 222.199C401.051 224.2 401.212 225.766 401.314 226.846C401.365 227.386 401.401 227.804 401.426 228.095C401.438 228.24 401.447 228.353 401.453 228.434L401.46 228.53L401.463 228.559L401.464 228.573C401.464 228.575 401.464 228.576 393.131 229.186C393.131 229.186 392.863 225.526 392.007 219.141C390.243 205.99 385.982 181.276 376.421 153.154C371.226 137.865 363.721 128.311 355.928 118.392L355.925 118.388V118.371L355.886 118.298C352.713 114.245 349.489 110.123 346.342 105.53C338.81 94.5162 340.507 80.2883 342.269 72.6056L346.342 67.0965C346.849 66.0665 347.327 65.0555 347.775 64.0631C348.194 63.1357 348.588 62.2246 348.953 61.3294C351.218 63.0961 353.437 65.0468 355.575 67.0903C364.762 75.8738 372.429 86.37 375.585 91.3263C369.562 74.4519 358.562 62.4226 352.368 56.9531C351.877 56.5193 351.416 56.1269 350.99 55.7765ZM393.131 229.186L401.464 228.576L402.251 239.336L391.637 237.406L393.131 229.186ZM418.653 336.521L412.012 330.689C386.27 308.083 374.805 293.878 368.836 281.118C370.077 275.665 370.522 269.234 369.686 261.687L369.685 261.673L369.683 261.659C369.553 260.523 369.388 259.389 369.182 258.262C371.047 251.93 373.225 247.199 375.374 242.679L375.416 242.621L375.856 241.693L375.857 241.692C377.395 238.457 379.036 235.003 380.317 231.146C380.961 231.706 381.592 232.219 382.207 232.69C384.515 234.454 386.56 235.582 388.2 236.297C389.017 236.653 389.726 236.903 390.307 237.078C390.597 237.166 390.855 237.234 391.077 237.287C391.189 237.314 391.291 237.337 391.384 237.357C391.431 237.366 391.475 237.375 391.517 237.384L391.579 237.395L391.608 237.401L391.622 237.404C391.629 237.405 391.637 237.406 393.131 229.186C393.131 229.186 389.407 228.509 384.114 223.275C383.57 222.738 383.01 222.153 382.436 221.515C379.817 218.607 376.903 214.613 373.914 209.133C374.665 215.145 374.445 219.844 373.606 223.975C372.548 229.183 370.506 233.486 368.183 238.374L368.144 238.429C365.651 243.66 362.857 249.571 360.585 257.959C360.938 259.452 361.199 261.004 361.382 262.606C362.269 270.625 361.499 276.921 360.011 281.823C365.632 295.24 375.921 308.924 397.215 328.613C399.954 331.145 402.875 333.777 405.992 336.521H418.653Z" fill="white"/>
<path d="M339.659 194.931C336.317 172.873 322.113 154.548 315.429 148.142V119.735L353.027 148.142L368.902 194.931L355.534 247.568L337.153 239.213C339.381 233.643 343.001 216.988 339.659 194.931Z" fill="#F0DC0D"/>
<path d="M319.607 127.254C333.643 135.275 350.521 154.826 358.876 178.221L379.764 196.602L378.093 173.207L345.508 115.557L319.607 109.709V127.254Z" fill="#E37E26"/>
<path d="M235.22 77.9591L227.7 68.7684L170.05 97.1758L143.314 154.826L147.491 203.286L195.115 250.075L209.319 254.252L250.259 244.226C248.588 243.112 221.719 218.75 212.661 208.299C190.938 183.234 185.313 146.471 188.431 138.951C199.794 111.547 223.244 88.5422 235.22 77.9591Z" fill="#F0DC0D"/>
<path d="M221.852 56.2358L227.7 68.7685C218.788 75.174 197.288 95.3377 182.583 124.748C164.202 161.51 159.62 200.322 164.202 214.983C168.379 228.351 173.392 242.555 179.241 270.127L197.622 315.245L201.31 321.237L228.536 336.968H273.654H336.317L338.823 303.547L331.304 286.002L336.317 270.127L347.179 286.002L383.106 336.968H336.317H273.654H228.536H210.99L201.31 321.237L190.938 315.245L153.34 280.988L103.209 228.351V171.536L148.327 92.9983L182.583 68.7685L221.852 56.2358Z" fill="#E37E26"/>
<path d="M222.686 57.0713C216.67 43.7031 225.193 32.5629 230.206 28.6639V22.8153L169.215 32.0059L133.288 52.8937L113.235 86.3142L118.248 97.1759C118.248 97.1759 95.6896 104.695 90.6765 120.57C99.8671 128.09 109.893 127.254 109.893 127.254L88.17 138.951L61.4336 181.563V235.035H76.4728L88.17 272.633L109.058 336.968H216.839L175.063 291.015C173.392 284.331 163.366 267.955 139.972 245.897C110.729 218.325 138.168 170.903 155.846 133.938C165.037 114.722 186.76 75.4526 222.686 57.0713Z" fill="#EF4E23"/>
<path d="M337.153 16.9711C329.633 4.43301 275.325 7.77582 271.147 19.4725L309.581 47.0451L337.153 16.9711Z" fill="#111111"/>
<path d="M268.641 77.1236C276.493 72.5427 302.34 55.4003 309.581 47.0452C320.944 59.0765 331.304 70.4395 344.672 66.2619L322.949 115.557C316.203 162.103 315.153 157.409 328.797 194.931C336.077 214.95 336.317 245.062 336.317 245.062L323.784 237.542L312.923 244.226L305.403 235.035C305.403 235.035 302.608 240.048 298.719 242.555C294.541 245.248 290.364 245.897 290.364 245.897L271.147 244.226C240.233 225.009 197.622 177.091 197.622 140.623C209.319 113.051 221.016 99.6824 244.411 82.1367C250.816 81.8582 258.614 82.9722 268.641 77.1236Z" fill="#111111"/>
<path d="M287.022 208.299L269.476 245.061L291.199 248.404L287.022 208.299Z" fill="white"/>
<path d="M346.343 105.531C335.481 89.6562 343.837 67.0974 343.837 67.0974L322.113 113.886L343.837 133.103C357.205 145.636 366.395 167.359 369.737 179.892C361.382 173.207 351.356 174.878 351.356 174.878C351.356 174.878 367.326 199.981 357.205 225.845C342.166 264.278 357.205 276.811 357.205 276.811C361.382 236.706 377.257 235.871 373.915 209.134C383.941 227.516 393.132 229.187 393.132 229.187C393.132 229.187 390.625 194.931 376.422 153.155C369.084 131.573 357.205 121.406 346.343 105.531Z" fill="#111111"/>
<path d="M322.949 115.557L326.291 59.5778L345.508 65.4264L322.949 115.557Z" fill="white"/>
<path d="M375.586 91.3273C368.902 72.6118 356.091 59.8563 350.521 55.4003L350.521 55.4003C349.685 58.7423 349.407 59.8563 348.85 61.2489C360.881 70.6066 371.687 85.2002 375.586 91.3273Z" fill="#111111"/>
<path d="M265.298 123.077L274.489 72.1105L252.766 77.1235L265.298 123.077Z" fill="white"/>
<path d="M165.873 91.3272C201.8 52.8937 248.588 39.5255 248.588 39.5255L252.766 45.3741C252.766 45.3741 207.648 62.0843 165.873 91.3272Z" fill="#111111"/>
<path d="M195.951 114.724C222.687 70.4395 256.943 51.2227 256.943 51.2227L261.956 56.2358C261.956 56.2358 231.042 72.946 195.951 114.724Z" fill="#111111"/>
<path d="M109.893 69.6039C156.013 24.8205 168.379 20.9263 223.523 16.1312C242.74 14.4602 265.02 12.2321 276.996 11.1181C267.933 15.4111 266.134 18.6377 266.134 18.6377C266.134 18.6377 240.233 20.3087 228.536 29.4994C206.765 33.4123 176.458 34.6164 160.024 41.1965C129.93 53.2459 123.261 77.9591 123.261 77.9591L118.248 97.1758C94.854 97.1758 79.5363 112.772 74.8017 124.748C92.8488 130.763 103.209 129.761 109.893 127.254C84.4937 149.312 48.0653 139.787 33.0261 132.267C39.1532 129.482 55.0836 119.066 69.7887 99.6824C84.4937 80.2985 102.652 71.5535 109.893 69.6039Z" fill="#111111"/>
<path d="M383.106 67.0974C375.753 56.4029 359.433 48.4376 352.192 46.2096C352.192 46.2096 353.027 43.1813 353.027 41.1965C353.027 39.2118 352.192 36.1835 352.192 36.1835C370.239 47.5464 380.321 61.2488 383.106 67.0974Z" fill="#111111"/>
<path d="M172.557 43.7057C181.246 41.032 188.988 45.9337 191.773 48.7187C188.431 54.845 178.405 67.0974 165.037 67.0974C151.669 67.0974 143.314 62.0844 140.807 59.5778C147.77 55.4011 163.867 46.3793 172.557 43.7057Z" fill="#111111"/>
<path d="M23 189.082C51.7416 174.377 72.5737 146.193 82.3214 133.938H99.0316C62.9375 174.711 66.1681 213.312 72.2952 227.516L88.1699 209.97C88.1699 255.422 106.551 274.583 115.742 278.482C115.073 270.461 119.919 263.443 122.426 260.936C121.758 280.988 136.63 293.8 144.149 297.699C134.792 297.03 128.553 294.635 126.603 293.521V304.383C115.742 302.712 105.437 297.977 100.703 291.015C108.222 314.409 124.932 329.448 134.123 336.968H95.6895C68.2064 300.324 72.2686 267.83 74.7775 247.762L74.8017 247.568C71.4597 256.926 60.598 261.493 54.7495 265.114C46.7285 242.388 48.6224 208.856 50.5719 194.931C43.8878 194.931 29.4056 191.032 23 189.082Z" fill="#111111"/>
<path d="M327.962 208.299L312.087 245.061H331.304L327.962 208.299Z" fill="white"/>
<path d="M149.162 92.9983C146.934 105.531 132.118 139.954 90.6765 177.385C100.703 156.497 126.436 110.377 149.162 92.9983Z" fill="#111111"/>
<path d="M119.919 201.615C122.593 184.236 135.514 158.725 141.641 147.307C134.4 153.991 118.08 173.04 110.727 195.766C103.375 218.492 109.335 234.757 113.234 240.048L118.248 230.022C130.28 258.764 164.202 265.949 179.239 263.443C164.202 258.43 153.656 254.528 139.972 242.555C126.604 230.858 128.553 205.514 131.617 194.095L119.919 201.615Z" fill="#111111"/>
<path d="M170.05 200.779C164.703 181.395 176.733 148.699 185.088 136.445C154.342 168.529 148.325 197.716 149.16 208.299C149.925 218 180.076 238.377 199.291 238.377C183.418 229.187 175.397 220.163 170.05 200.779Z" fill="#111111"/>
<path d="M179.24 104.695C177.012 113.329 171.052 132.769 165.036 141.458C163.644 134.217 164.535 116.727 179.24 104.695Z" fill="#111111"/>
<path d="M143.314 302.712C145.319 322.096 149.441 333.626 154.175 336.968H183.418C167.544 333.626 153.34 320.258 143.314 302.712Z" fill="#111111"/>
<path d="M205.142 336.968C186.76 326.942 171.721 296.028 167.544 276.811C198.458 323.6 233.549 336.968 255.272 336.968H205.142Z" fill="#111111"/>
<path d="M361.382 262.607C358.969 240.884 339.659 229.187 334.646 226.68L332.975 236.706L336.317 245.062C343.837 249.239 346.9 261.493 348.014 267.62C342.667 261.605 335.203 261.772 332.139 262.607C333.476 273.302 327.683 284.331 324.62 288.508L318.771 270.127C317.434 276.143 300.947 294.357 292.87 302.712L295.377 283.495C290.698 288.842 274.489 298.534 266.97 302.712C269.643 292.017 266.412 280.989 264.463 276.811C253.768 284.832 238.841 287.951 232.714 288.508L248.588 267.62L216.003 255.088C220.682 251.746 227.979 249.796 231.042 249.239C216.337 247.234 202.078 253.417 196.786 256.759L226.865 275.14L215.168 300.205C242.573 300.205 254.437 294.078 256.943 291.015L254.437 322.764C266.468 317.417 280.616 305.497 286.186 300.205L282.009 322.764C295.377 316.08 310.416 297.699 316.265 289.344L326.291 307.725C333.643 297.699 337.153 281.824 337.988 275.14L351.356 296.028C354.698 292.686 363.703 283.495 361.382 262.607Z" fill="#111111"/>
<path d="M406.5 336.968C372.244 306.889 361.382 290.179 356.369 270.962L334.646 273.469C344.672 301.876 362.218 325.271 372.244 336.968H406.5Z" fill="#111111"/>
<path d="M336.317 296.863C338.824 321.093 327.962 334.461 314.594 336.968H343.001C349.685 316.916 340.773 302.99 336.317 296.863Z" fill="#111111"/>
<path d="M175.094 49.92C178.362 48.8492 181.448 50.3661 182.583 51.2584C174.958 58.2198 167.152 56.3881 164.202 54.602C166.471 53.4875 171.826 50.9907 175.094 49.92Z" fill="white"/>
<path d="M340.495 196.602C338.489 167.86 325.177 146.193 318.771 140.622L317.1 156.497C330.468 171.871 337.988 189.639 340.495 196.602Z" fill="#111111"/>
</svg>
