<svg width="900" height="900" viewBox="0 0 900 900" fill="none" xmlns="http://www.w3.org/2000/svg">
<g clip-path="url(#clip0_11303_13160)">
<rect width="900" height="900" fill="#FFFBF4"/>
<rect width="900" height="900" fill="url(#paint0_radial_11303_13160)"/>
<path d="M-73.9111 23.7734C98.431 118.931 -35.7587 484.4 226.29 470.618C321.143 465.629 413.545 440.21 508.928 439.891C606.381 439.565 690.765 478.177 767.002 536.407C843.268 594.659 915.884 625.673 1011.61 635.662C1121.86 647.165 1223.72 692.076 1330.5 718.195C1418.89 739.812 1511.76 721.363 1600.93 713.635C1654.66 708.979 1695.37 725.116 1745.54 744.401" stroke="url(#paint1_linear_11303_13160)" stroke-linecap="round" stroke-linejoin="round"/>
<path d="M-66.167 2.73535C103.382 95.6727 -13.3307 450.415 237.281 439.971C327.959 436.192 416.557 413.344 507.688 413.976C603.842 414.643 691.717 459.013 767.686 514.696C844.337 570.877 920.245 604.724 1015.75 612.497C1125.88 621.459 1227.18 665.768 1332.99 693.393C1419.03 715.857 1512.11 702.534 1599.72 696.502C1655.79 692.642 1698.15 705.168 1750.69 725.881" stroke="url(#paint2_linear_11303_13160)" stroke-linecap="round" stroke-linejoin="round"/>
<path d="M-60.3955 -14.6689C32.2983 35.4293 43.4507 159.098 70.7637 249.637C84.1049 293.862 100.078 341.557 132.347 376.347C163.258 409.673 205.254 413.85 248.413 412.594C335.308 410.064 420.493 389.836 507.76 391.452C601.647 393.191 691.532 441.422 766.591 494.317C842.903 548.095 920.637 582.579 1014.76 588.76C1124.42 595.961 1224.69 640.236 1329.02 670.126C1412.71 694.102 1506.08 686.635 1592.21 681.881C1651.21 678.624 1696.32 687.046 1751.97 709.13" stroke="url(#paint3_linear_11303_13160)" stroke-linecap="round" stroke-linejoin="round"/>
<path d="M-56.2803 -29.0029C107.813 58.1872 29.2287 387.766 254.534 387.978C338.858 388.057 421.833 369.715 506.409 371.875C597.557 374.203 690.851 424.098 764.079 475.19C840.616 528.589 919.547 557.476 1012.48 564.872C1118.27 573.291 1213.41 613.209 1313.14 646.05C1456.54 693.27 1609.84 638.858 1749.91 693.899" stroke="url(#paint4_linear_11303_13160)" stroke-linecap="round" stroke-linejoin="round"/>
<path d="M-53.5068 -40.8281C110.105 44.0572 48.1977 361.811 265.917 365.735C347.116 367.199 427.387 351.837 508.787 355.25C597.711 358.978 686.997 410.488 760.295 457.215C837.101 506.177 912.403 533.188 1003.46 540.156C1108.42 548.187 1201.68 588.786 1299.22 624.913C1379.93 654.802 1474.25 661.744 1559.95 658.745C1627.11 656.396 1680.75 655.231 1745.06 679.947" stroke="url(#paint5_linear_11303_13160)" stroke-linecap="round" stroke-linejoin="round"/>
<path d="M-51.7539 -50.7148C42.987 -2.86081 67.4995 107.565 106.211 197.169C141.502 278.856 181.997 341.712 277.226 345.417C355.536 348.463 433.687 334.423 512.062 341.149C597.898 348.515 683.05 396.449 755.614 440.291C830.518 485.547 904.317 508.399 991.544 515.046C1095.5 522.968 1186.8 564.771 1281.67 604.541C1360.25 637.485 1453.68 651.795 1538.83 649.388C1610.14 647.371 1669.12 641.397 1737.97 667.019" stroke="url(#paint6_linear_11303_13160)" stroke-linecap="round" stroke-linejoin="round"/>
<path d="M-50.7041 -59.2236C111.432 20.5401 82.9258 310.298 283.46 326.355C363.196 332.739 443.484 319.821 523.181 329.931C600.981 339.801 682.88 385.634 750.286 424.286C823.194 466.093 896.901 483.907 980.398 489.589C1084.04 496.642 1174.72 544.356 1266.95 587.276C1341.22 621.835 1430.49 642.779 1512.77 641.095C1589.03 639.535 1654.91 628.322 1729.16 654.872" stroke="url(#paint7_linear_11303_13160)" stroke-linecap="round" stroke-linejoin="round"/>
<path d="M-50.042 -66.9229C113.029 10.9689 98.4792 286.912 294.554 308.394C371.95 316.874 450.428 308.108 527.658 320.204C601.289 331.736 679.025 374.627 744.7 409.18C815.058 446.196 886.311 458.089 964.91 463.861C1067.41 471.389 1156 520.96 1244.71 567.988C1317.38 606.508 1404.05 634.628 1487.03 633.36C1567.96 632.122 1639.91 616.092 1719.18 643.255" stroke="url(#paint8_linear_11303_13160)" stroke-linecap="round" stroke-linejoin="round"/>
<path d="M-49.4482 -74.3711C44.0367 -30.9189 82.5517 62.4264 131.502 146.241C153.108 183.238 176.651 218.891 207.386 249.24C236.574 278.062 270.542 286.3 309.977 291.611C383.199 301.472 457.354 299.164 530.377 311.865C601.28 324.198 673.786 364.997 739.128 394.921C803.571 424.434 869.55 433.06 939.793 437.302C1047.04 443.778 1137.56 498.219 1227.12 552.131C1295.35 593.21 1377.16 626.546 1457.83 625.906C1544.28 625.22 1623.57 604.071 1708.58 631.927" stroke="url(#paint9_linear_11303_13160)" stroke-linecap="round" stroke-linejoin="round"/>
<path d="M-48.6064 -82.1367C45.7753 -39.4095 88.2851 51.0834 141.421 133.56C164.543 169.452 189.78 204.168 221.415 233.364C250.626 260.322 286.855 268.695 325.05 275.315C394.252 287.308 464.817 289.208 533.557 304.673C601.608 319.983 668.681 355.567 733.779 381.204C796.353 405.846 860.72 406.117 926.809 411.552C1029.91 420.032 1115.34 472.458 1198.66 529.376C1266.13 575.475 1344.72 617.906 1428.32 618.277C1520.59 618.685 1606.83 592.044 1697.89 620.638" stroke="url(#paint10_linear_11303_13160)" stroke-linecap="round" stroke-linejoin="round"/>
<path d="M-47.1953 -90.7861C46.814 -49.3417 93.1599 36.9574 149.376 117.081C199.487 188.502 248.126 238.468 334.99 258.145C402.77 273.498 472.049 280.611 539.263 298.984C603.91 316.656 664.27 349.166 729.035 368.144C789.007 385.718 850.174 380.274 911.726 385.274C1013.8 393.564 1097.68 449.082 1176.68 509.501C1242.72 560.018 1316.57 609.161 1402.41 610.106C1499.49 611.176 1591.63 580.023 1687.66 609.137" stroke="url(#paint11_linear_11303_13160)" stroke-linecap="round" stroke-linejoin="round"/>
<path d="M-44.9014 -100.879C49.4443 -60.1868 99.2397 23.31 158.897 101.451C209.029 167.117 259.324 215.376 340.033 238.931C410.153 259.396 482.546 271.934 551.655 296.152C610.231 316.679 663.193 344.879 725.158 355.691C783.484 365.869 842.326 353.947 900.995 358.9C998.309 367.114 1079.51 423.64 1151.64 484.675C1216.95 539.941 1285.85 598.515 1375.28 600.972C1478 603.795 1576.66 567.205 1678.42 597.182" stroke="url(#paint12_linear_11303_13160)" stroke-linecap="round" stroke-linejoin="round"/>
<path d="M-41.4033 -112.984C51.8527 -73.5632 104.628 5.80046 166.378 81.0782C218.329 144.41 271.26 191.342 349.076 219.582C418.213 244.673 489.157 264.289 557.328 292.226C612.397 314.793 661.697 340.818 722.437 343.543C778.538 346.059 833.401 327.798 889.83 332.536C986.666 340.669 1066.06 399.188 1134.7 462.951C1198.26 521.992 1262.31 587.166 1353.92 590.58C1460.91 594.568 1564.7 553.746 1670.73 584.522" stroke="url(#paint13_linear_11303_13160)" stroke-linecap="round" stroke-linejoin="round"/>
<path d="M-36.3887 -127.664C52.0979 -90.7705 107.219 -19.0883 167.845 51.299C221.465 113.553 277.582 162.861 352.951 196.567C419.132 226.164 486.293 252.952 552.022 283.654C607.512 309.573 657.949 338.281 721.186 331.566C777.021 325.638 826.848 301.851 884.66 306.743C982.683 315.039 1059.68 377.649 1125.97 444.608C1189.94 509.233 1248.9 576.075 1345.72 578.574C1453.3 581.351 1558.58 540.08 1665.11 570.912" stroke="url(#paint14_linear_11303_13160)" stroke-linecap="round" stroke-linejoin="round"/>
<path d="M-29.9375 -144.521C56.5109 -107.785 112.825 -39.074 173.872 28.9156C228.775 90.0631 286.88 138.24 359.848 176.26C425.766 210.607 491.768 244.303 557.231 279.532C610.133 308.001 659.962 335.497 721.208 318.473C776.061 303.226 819.064 273.271 879.441 277.597C977.232 284.604 1052.91 349.194 1116.04 417.963C1178.12 485.587 1233.18 558.511 1331.79 562.81C1442.75 567.647 1552.53 523.274 1662.1 556.091" stroke="url(#paint15_linear_11303_13160)" stroke-linecap="round" stroke-linejoin="round"/>
<path d="M-23.5049 -161.1C60.2931 -124.863 117.098 -59.4509 177.859 5.73788C233.925 65.8885 294.126 113.107 364.735 155.057C430.982 194.417 496.221 235.016 561.985 275.137C613.711 306.693 664.095 332.278 723.316 304.977C776.795 280.323 814.583 244.656 878.589 247.327C975.619 251.376 1049.8 315.878 1110.15 385.229C1170.31 454.37 1222.84 532.284 1321.49 539.95C1435.58 548.814 1550.36 502.836 1662.24 539.798" stroke="url(#paint16_linear_11303_13160)" stroke-linecap="round" stroke-linejoin="round"/>
<path d="M-16.335 -179.169C63.3554 -144.82 120.319 -85.2732 179.911 -24.58C237.677 34.2539 299.839 79.9541 369.004 124.476C436.663 168.029 502.287 214.283 569.431 258.553C620.673 292.338 670.743 318.325 729.725 287.486C782.753 259.759 819.218 220.259 884.733 221.841C980.707 224.16 1054.27 288.125 1113.42 356.772C1173.1 426.043 1224.62 506.02 1322.94 515.494C1437.8 526.562 1554.52 480.59 1666.66 520.027" stroke="url(#paint17_linear_11303_13160)" stroke-linecap="round" stroke-linejoin="round"/>
<path d="M-8.41602 -194.822C66.2357 -165.788 123.471 -116.341 182.04 -63.3909C243.274 -8.03301 309.241 38.1748 376.163 86.284C445.932 136.44 512.69 190.491 582.455 240.598C630.176 274.873 679.226 298.636 736.007 271.577C790.08 245.81 830.773 201.788 896.058 204.792C991.52 209.184 1063.94 272.74 1123.27 340.975C1181.54 408.003 1231.64 481.854 1326.45 491.871C1442.97 504.182 1561.14 458.131 1675 497.896" stroke="url(#paint18_linear_11303_13160)" stroke-linecap="round" stroke-linejoin="round"/>
<path d="M0.229206 -207.792C70.163 -183.546 128.524 -144.214 186.542 -99.2427C251.115 -49.1914 317.658 -1.60294 381.736 48.9795C451.562 104.099 517.227 164.198 587.358 218.891C634.184 255.409 683.587 281.659 742.246 257.202C797.848 234.02 841.447 188.539 906.341 190.923C999.485 194.344 1071.35 256.104 1130.2 321.812C1189.65 388.209 1239.29 459.52 1334.34 469.242C1451.08 481.183 1569.33 436.418 1683.39 476.076" stroke="url(#paint19_linear_11303_13160)" stroke-linecap="round" stroke-linejoin="round"/>
<path d="M9.49405 -218.618C159.05 -184.424 280.669 -103.53 391.248 -0.20917C459.528 63.5892 522.073 133.207 591.11 196.179C635.99 237.117 687.404 265.444 748.381 244.254C806.107 224.194 853.272 178.095 918.092 179.58C1008.67 181.656 1079.92 241.157 1138.21 304.055C1198.78 369.408 1247.94 437.909 1342.87 447.166C1459.62 458.55 1577.69 414.898 1691.79 454.257" stroke="url(#paint20_linear_11303_13160)" stroke-linecap="round" stroke-linejoin="round"/>
<path d="M19.2479 -227.584C83.0374 -219.061 146.82 -208.769 207.972 -188.006C287.557 -160.985 345.557 -103.442 402.21 -42.8143C468.135 27.7356 526.559 104.901 593.753 174.278C637.555 219.502 690.539 249.548 754.432 232.465C814.97 216.28 865.657 169.947 931.032 170.287C1018.84 170.744 1089.43 227.576 1147.11 287.443C1208.72 351.386 1257.39 416.888 1351.92 425.545C1468.51 436.22 1586.2 393.536 1700.19 432.442" stroke="url(#paint21_linear_11303_13160)" stroke-linecap="round" stroke-linejoin="round"/>
<path d="M29.3829 -235.117C93.2903 -231.123 158.463 -232.646 221.762 -221.764C253.56 -216.297 280.394 -209.512 305.7 -189.746C345.52 -158.644 382.325 -118.142 414.507 -79.4706C477.394 -3.90214 530.86 78.9939 595.572 153.092C638.417 202.151 693.768 234.677 760.42 221.567C823.891 209.083 878.601 163.606 944.883 162.564C1029.76 161.229 1099.65 215.039 1156.69 271.715C1219.31 333.932 1267.47 396.326 1361.38 404.279C1477.67 414.128 1594.83 372.296 1708.59 410.63" stroke="url(#paint22_linear_11303_13160)" stroke-linecap="round" stroke-linejoin="round"/>
<path d="M39.7813 -241.643C105.726 -240.664 171.383 -252.078 237.219 -249.503C270.048 -248.219 296.446 -244.64 322.387 -224.646C362.215 -193.948 398.055 -150.746 428.012 -110.812C487.307 -31.7686 535.132 55.2053 596.841 132.528C638.969 185.315 697.028 220.361 766.358 211.29C833.04 202.567 891.594 158.584 959.363 155.93C1041.19 152.725 1110.36 203.225 1166.74 256.609C1230.35 316.834 1277.99 376.089 1371.12 383.272C1487.01 392.21 1603.53 351.145 1717 388.82" stroke="url(#paint23_linear_11303_13160)" stroke-linecap="round" stroke-linejoin="round"/>
<path d="M50.3291 -247.591C119.547 -248.339 185.416 -267.853 254.056 -272.026C287.532 -274.061 314.164 -272.946 340.877 -252.676C380.362 -222.714 414.995 -178.009 442.603 -137.473C497.881 -56.313 539.529 33.2532 597.838 112.491C639.354 168.908 700.442 206.492 772.261 201.365C842.31 196.364 904.435 154.394 974.189 149.906C1052.91 144.841 1121.35 191.814 1177.06 241.863C1241.65 299.883 1288.75 356.045 1381.02 362.422C1496.46 370.399 1612.28 330.045 1725.4 367.01" stroke="url(#paint24_linear_11303_13160)" stroke-linecap="round" stroke-linejoin="round"/>
<path d="M60.9198 -253.386C134.735 -254.65 201.774 -281.139 274.085 -290.417C311 -295.154 335.857 -294.373 364.812 -270.82C403.715 -239.176 436.004 -196.651 461.742 -154.24C537.776 -28.9475 594.833 195.735 778.252 191.333C849.023 189.635 912.084 154.345 981.144 144.912C1057.51 134.481 1127.3 176.758 1183.38 223.77C1211.04 246.962 1237.1 271.959 1264.51 295.426C1304.1 329.327 1349.74 340.654 1401.13 342.276C1512.67 345.796 1624.49 310.173 1733.81 345.201" stroke="url(#paint25_linear_11303_13160)" stroke-linecap="round" stroke-linejoin="round"/>
<path d="M71.4351 -259.457C149.45 -259.928 217.473 -291.966 292.924 -305.013C330.122 -311.445 356.188 -311.712 385.847 -288.009C424.018 -257.503 454.542 -215.684 477.825 -173.449C551.077 -40.5699 594.404 177.28 784.155 181.305C858.001 182.871 924.49 150.371 995.943 138.867C1069.3 127.056 1138.07 165.368 1193.65 209.193C1221.3 230.993 1247.02 255.003 1274.23 277.285C1314.01 309.854 1360.39 320.126 1410.98 321.361C1522.06 324.073 1633.22 289.051 1742.22 323.391" stroke="url(#paint26_linear_11303_13160)" stroke-linecap="round" stroke-linejoin="round"/>
<path d="M81.7667 -266.228C164.85 -264.675 234.967 -302.232 314.62 -317.216C344.411 -322.82 376.034 -326.404 401.428 -307.055C439.551 -278.009 469.787 -237.423 491.581 -195.583C564.577 -55.4488 592.039 158.297 789.972 171.018C867.503 176 937.928 143.849 1012.68 131.868C1081.08 120.906 1145.31 151.799 1199.46 191.155C1230.37 213.622 1257.96 240.395 1288.9 262.696C1327.08 290.22 1370.51 299.065 1417.05 300.25C1529 303.099 1640.63 267.588 1750.62 301.582" stroke="url(#paint27_linear_11303_13160)" stroke-linecap="round" stroke-linejoin="round"/>
<path d="M91.7989 -274.129C178.99 -269.297 251.283 -310.579 334.348 -326.935C364.966 -332.964 397.537 -336.118 423.896 -316.644C461.222 -289.07 489.701 -251.095 509.31 -209.856C546.285 -132.091 560.644 -45.8171 601.794 30.3668C640.422 101.883 714.294 151.997 795.932 159.813C875.995 167.478 949.229 137.408 1026.16 123.602C1092.12 111.765 1155 139.277 1208.85 175.662C1239.86 196.616 1267.09 222.532 1297.84 243.671C1336.28 270.106 1380.33 278.114 1426.41 278.993C1538.06 281.12 1649.23 246.336 1759.02 279.769" stroke="url(#paint28_linear_11303_13160)" stroke-linecap="round" stroke-linejoin="round"/>
<path d="M101.42 -283.585C193.379 -274.361 269.048 -319.645 356.623 -335.871C390.787 -342.201 422.046 -342.482 450.278 -320.754C482.984 -295.582 508.367 -265.808 525.27 -228.335C561.37 -148.301 568.034 -58.5176 609.966 19.5401C647.322 89.0773 723.542 138.674 802.077 147.411C885.648 156.707 961.079 128.651 1041.21 112.666C1104.67 100.006 1169.05 128.039 1221.41 161.828C1252.71 182.023 1279.88 208.207 1311.34 227.894C1347.09 250.259 1390.27 256.471 1431.69 257.355C1544.47 259.763 1656.42 224.679 1767.43 257.955" stroke="url(#paint29_linear_11303_13160)" stroke-linecap="round" stroke-linejoin="round"/>
<path d="M110.518 -295.022C206.137 -280.434 284.795 -328.381 376.107 -343.805C452.845 -356.768 515.175 -309.893 544.15 -240.051C576.421 -162.265 576.328 -75.2866 615.103 0.601991C651.52 71.8759 728.826 123.704 808.177 133.953C893.729 145.003 970.49 117.812 1052.28 100.275C1113.43 87.1636 1177.37 112.601 1229.05 143.936C1260.49 163 1287.38 188.709 1318.82 207.445C1355.04 229.027 1398.66 234.661 1440.07 235.36C1552.89 237.265 1664.74 203.16 1775.82 236.139" stroke="url(#paint30_linear_11303_13160)" stroke-linecap="round" stroke-linejoin="round"/>
<path d="M118.977 -308.871C217.909 -288.136 299.848 -338.196 394.977 -352.048C468.457 -362.748 536.733 -320.604 563.238 -251.52C592.18 -176.08 585.821 -92.1252 621.94 -18.4755C657.467 53.9647 734.415 107.707 814.367 118.963C901.806 131.273 978.424 103.429 1061.73 85.1219C1121.01 72.0952 1184.39 95.2412 1235.5 124.54C1267.17 142.695 1293.83 168.208 1325.36 186.187C1362.09 207.134 1406.26 212.252 1447.78 212.833C1560.86 214.414 1672.88 181.452 1784.21 214.318" stroke="url(#paint31_linear_11303_13160)" stroke-linecap="round" stroke-linejoin="round"/>
<path d="M126.69 -325.553C228.562 -298.069 313.957 -349.755 412.948 -361.407C482.794 -369.628 558.123 -331.058 582.408 -263.382C608.659 -190.228 596.677 -109.263 630.768 -37.7754C665.555 35.1717 740.268 90.4427 820.672 102.176C909.695 115.168 984.908 85.4162 1069.29 66.7302C1126.9 53.9726 1190.18 75.8038 1240.56 103.379C1272.57 120.898 1299.08 146.46 1330.79 163.978C1368.01 184.534 1412.98 189.141 1454.7 189.681C1568.32 191.152 1680.79 159.527 1792.6 192.494" stroke="url(#paint32_linear_11303_13160)" stroke-linecap="round" stroke-linejoin="round"/>
</g>
<defs>
<radialGradient id="paint0_radial_11303_13160" cx="0" cy="0" r="1" gradientUnits="userSpaceOnUse" gradientTransform="translate(450 -196.591) rotate(90) scale(728.409 472.095)">
<stop offset="0.09375" stop-color="#EF4E23"/>
<stop offset="0.375" stop-color="#EFAA23" stop-opacity="0.5"/>
<stop offset="1" stop-color="white" stop-opacity="0"/>
</radialGradient>
<linearGradient id="paint1_linear_11303_13160" x1="839.822" y1="373.688" x2="722.391" y2="680.337" gradientUnits="userSpaceOnUse">
<stop stop-color="white" stop-opacity="0.2"/>
<stop offset="0.463542" stop-color="#EF4E23" stop-opacity="0.2"/>
<stop offset="1" stop-color="#EF4E23" stop-opacity="0"/>
</linearGradient>
<linearGradient id="paint2_linear_11303_13160" x1="846.859" y1="352.379" x2="733.638" y2="648.034" gradientUnits="userSpaceOnUse">
<stop stop-color="white" stop-opacity="0.2"/>
<stop offset="0.463542" stop-color="#EF4E23" stop-opacity="0.2"/>
<stop offset="1" stop-color="#EF4E23" stop-opacity="0"/>
</linearGradient>
<linearGradient id="paint3_linear_11303_13160" x1="850.782" y1="334.267" x2="740.99" y2="620.968" gradientUnits="userSpaceOnUse">
<stop stop-color="white" stop-opacity="0.2"/>
<stop offset="0.463542" stop-color="#EF4E23" stop-opacity="0.2"/>
<stop offset="1" stop-color="#EF4E23" stop-opacity="0"/>
</linearGradient>
<linearGradient id="paint4_linear_11303_13160" x1="852.059" y1="318.846" x2="748.117" y2="590.271" gradientUnits="userSpaceOnUse">
<stop stop-color="white" stop-opacity="0.2"/>
<stop offset="0.463542" stop-color="#EF4E23" stop-opacity="0.2"/>
<stop offset="1" stop-color="#EF4E23" stop-opacity="0"/>
</linearGradient>
<linearGradient id="paint5_linear_11303_13160" x1="851.154" y1="305.612" x2="752.23" y2="563.933" gradientUnits="userSpaceOnUse">
<stop stop-color="white" stop-opacity="0.2"/>
<stop offset="0.463542" stop-color="#EF4E23" stop-opacity="0.2"/>
<stop offset="1" stop-color="#EF4E23" stop-opacity="0"/>
</linearGradient>
<linearGradient id="paint6_linear_11303_13160" x1="848.54" y1="294.053" x2="754.769" y2="538.917" gradientUnits="userSpaceOnUse">
<stop stop-color="white" stop-opacity="0.2"/>
<stop offset="0.463542" stop-color="#EF4E23" stop-opacity="0.2"/>
<stop offset="1" stop-color="#EF4E23" stop-opacity="0"/>
</linearGradient>
<linearGradient id="paint7_linear_11303_13160" x1="844.684" y1="283.666" x2="755.948" y2="515.383" gradientUnits="userSpaceOnUse">
<stop stop-color="white" stop-opacity="0.2"/>
<stop offset="0.463542" stop-color="#EF4E23" stop-opacity="0.2"/>
<stop offset="1" stop-color="#EF4E23" stop-opacity="0"/>
</linearGradient>
<linearGradient id="paint8_linear_11303_13160" x1="840.053" y1="273.939" x2="756.516" y2="492.08" gradientUnits="userSpaceOnUse">
<stop stop-color="white" stop-opacity="0.2"/>
<stop offset="0.463542" stop-color="#EF4E23" stop-opacity="0.2"/>
<stop offset="1" stop-color="#EF4E23" stop-opacity="0"/>
</linearGradient>
<linearGradient id="paint9_linear_11303_13160" x1="835.117" y1="264.374" x2="755.933" y2="471.146" gradientUnits="userSpaceOnUse">
<stop stop-color="white" stop-opacity="0.2"/>
<stop offset="0.463542" stop-color="#EF4E23" stop-opacity="0.2"/>
<stop offset="1" stop-color="#EF4E23" stop-opacity="0"/>
</linearGradient>
<linearGradient id="paint10_linear_11303_13160" x1="830.343" y1="254.457" x2="756.139" y2="448.226" gradientUnits="userSpaceOnUse">
<stop stop-color="white" stop-opacity="0.2"/>
<stop offset="0.463542" stop-color="#EF4E23" stop-opacity="0.2"/>
<stop offset="1" stop-color="#EF4E23" stop-opacity="0"/>
</linearGradient>
<linearGradient id="paint11_linear_11303_13160" x1="826.202" y1="243.682" x2="757.489" y2="423.112" gradientUnits="userSpaceOnUse">
<stop stop-color="white" stop-opacity="0.2"/>
<stop offset="0.463542" stop-color="#EF4E23" stop-opacity="0.2"/>
<stop offset="1" stop-color="#EF4E23" stop-opacity="0"/>
</linearGradient>
<linearGradient id="paint12_linear_11303_13160" x1="823.16" y1="231.546" x2="758.524" y2="400.328" gradientUnits="userSpaceOnUse">
<stop stop-color="white" stop-opacity="0.2"/>
<stop offset="0.463542" stop-color="#EF4E23" stop-opacity="0.2"/>
<stop offset="1" stop-color="#EF4E23" stop-opacity="0"/>
</linearGradient>
<linearGradient id="paint13_linear_11303_13160" x1="821.688" y1="217.537" x2="760.538" y2="377.217" gradientUnits="userSpaceOnUse">
<stop stop-color="white" stop-opacity="0.2"/>
<stop offset="0.463542" stop-color="#EF4E23" stop-opacity="0.2"/>
<stop offset="1" stop-color="#EF4E23" stop-opacity="0"/>
</linearGradient>
<linearGradient id="paint14_linear_11303_13160" x1="822.249" y1="201.152" x2="758.441" y2="367.772" gradientUnits="userSpaceOnUse">
<stop stop-color="white" stop-opacity="0.2"/>
<stop offset="0.463542" stop-color="#EF4E23" stop-opacity="0.2"/>
<stop offset="1" stop-color="#EF4E23" stop-opacity="0"/>
</linearGradient>
<linearGradient id="paint15_linear_11303_13160" x1="824.922" y1="182.848" x2="756.119" y2="362.514" gradientUnits="userSpaceOnUse">
<stop stop-color="white" stop-opacity="0.2"/>
<stop offset="0.463542" stop-color="#EF4E23" stop-opacity="0.2"/>
<stop offset="1" stop-color="#EF4E23" stop-opacity="0"/>
</linearGradient>
<linearGradient id="paint16_linear_11303_13160" x1="828.662" y1="165.238" x2="755.1" y2="357.332" gradientUnits="userSpaceOnUse">
<stop stop-color="white" stop-opacity="0.2"/>
<stop offset="0.463542" stop-color="#EF4E23" stop-opacity="0.2"/>
<stop offset="1" stop-color="#EF4E23" stop-opacity="0"/>
</linearGradient>
<linearGradient id="paint17_linear_11303_13160" x1="834.345" y1="146.599" x2="759.707" y2="341.502" gradientUnits="userSpaceOnUse">
<stop stop-color="white" stop-opacity="0.2"/>
<stop offset="0.463542" stop-color="#EF4E23" stop-opacity="0.2"/>
<stop offset="1" stop-color="#EF4E23" stop-opacity="0"/>
</linearGradient>
<linearGradient id="paint18_linear_11303_13160" x1="841.36" y1="130.6" x2="767.778" y2="322.744" gradientUnits="userSpaceOnUse">
<stop stop-color="white" stop-opacity="0.2"/>
<stop offset="0.463542" stop-color="#EF4E23" stop-opacity="0.2"/>
<stop offset="1" stop-color="#EF4E23" stop-opacity="0"/>
</linearGradient>
<linearGradient id="paint19_linear_11303_13160" x1="848.494" y1="116.8" x2="776.212" y2="305.55" gradientUnits="userSpaceOnUse">
<stop stop-color="white" stop-opacity="0.2"/>
<stop offset="0.463542" stop-color="#EF4E23" stop-opacity="0.2"/>
<stop offset="1" stop-color="#EF4E23" stop-opacity="0"/>
</linearGradient>
<linearGradient id="paint20_linear_11303_13160" x1="857.88" y1="99.0396" x2="784.79" y2="289.899" gradientUnits="userSpaceOnUse">
<stop stop-color="white" stop-opacity="0.2"/>
<stop offset="0.463542" stop-color="#EF4E23" stop-opacity="0.2"/>
<stop offset="1" stop-color="#EF4E23" stop-opacity="0"/>
</linearGradient>
<linearGradient id="paint21_linear_11303_13160" x1="873.516" y1="66.63" x2="793.557" y2="275.425" gradientUnits="userSpaceOnUse">
<stop stop-color="white" stop-opacity="0.2"/>
<stop offset="0.463542" stop-color="#EF4E23" stop-opacity="0.2"/>
<stop offset="1" stop-color="#EF4E23" stop-opacity="0"/>
</linearGradient>
<linearGradient id="paint22_linear_11303_13160" x1="891.857" y1="28.4202" x2="802.386" y2="262.057" gradientUnits="userSpaceOnUse">
<stop stop-color="white" stop-opacity="0.2"/>
<stop offset="0.463542" stop-color="#EF4E23" stop-opacity="0.2"/>
<stop offset="1" stop-color="#EF4E23" stop-opacity="0"/>
</linearGradient>
<linearGradient id="paint23_linear_11303_13160" x1="908.713" y1="-5.08647" x2="811.201" y2="249.547" gradientUnits="userSpaceOnUse">
<stop stop-color="white" stop-opacity="0.2"/>
<stop offset="0.463542" stop-color="#EF4E23" stop-opacity="0.2"/>
<stop offset="1" stop-color="#EF4E23" stop-opacity="0"/>
</linearGradient>
<linearGradient id="paint24_linear_11303_13160" x1="923.852" y1="-33.6615" x2="819.947" y2="237.667" gradientUnits="userSpaceOnUse">
<stop stop-color="white" stop-opacity="0.2"/>
<stop offset="0.463542" stop-color="#EF4E23" stop-opacity="0.2"/>
<stop offset="1" stop-color="#EF4E23" stop-opacity="0"/>
</linearGradient>
<linearGradient id="paint25_linear_11303_13160" x1="937.196" y1="-57.4403" x2="828.389" y2="226.689" gradientUnits="userSpaceOnUse">
<stop stop-color="white" stop-opacity="0.2"/>
<stop offset="0.463542" stop-color="#EF4E23" stop-opacity="0.2"/>
<stop offset="1" stop-color="#EF4E23" stop-opacity="0"/>
</linearGradient>
<linearGradient id="paint26_linear_11303_13160" x1="949.077" y1="-77.6589" x2="836.833" y2="215.443" gradientUnits="userSpaceOnUse">
<stop stop-color="white" stop-opacity="0.2"/>
<stop offset="0.463542" stop-color="#EF4E23" stop-opacity="0.2"/>
<stop offset="1" stop-color="#EF4E23" stop-opacity="0"/>
</linearGradient>
<linearGradient id="paint27_linear_11303_13160" x1="960.034" y1="-96.0724" x2="845.115" y2="204.018" gradientUnits="userSpaceOnUse">
<stop stop-color="white" stop-opacity="0.2"/>
<stop offset="0.463542" stop-color="#EF4E23" stop-opacity="0.2"/>
<stop offset="1" stop-color="#EF4E23" stop-opacity="0"/>
</linearGradient>
<linearGradient id="paint28_linear_11303_13160" x1="969.146" y1="-110.654" x2="853.559" y2="191.178" gradientUnits="userSpaceOnUse">
<stop stop-color="white" stop-opacity="0.2"/>
<stop offset="0.463542" stop-color="#EF4E23" stop-opacity="0.2"/>
<stop offset="1" stop-color="#EF4E23" stop-opacity="0"/>
</linearGradient>
<linearGradient id="paint29_linear_11303_13160" x1="976.952" y1="-123.162" x2="861.45" y2="178.447" gradientUnits="userSpaceOnUse">
<stop stop-color="white" stop-opacity="0.2"/>
<stop offset="0.463542" stop-color="#EF4E23" stop-opacity="0.2"/>
<stop offset="1" stop-color="#EF4E23" stop-opacity="0"/>
</linearGradient>
<linearGradient id="paint30_linear_11303_13160" x1="983.111" y1="-133.072" x2="869.127" y2="164.575" gradientUnits="userSpaceOnUse">
<stop stop-color="white" stop-opacity="0.2"/>
<stop offset="0.463542" stop-color="#EF4E23" stop-opacity="0.2"/>
<stop offset="1" stop-color="#EF4E23" stop-opacity="0"/>
</linearGradient>
<linearGradient id="paint31_linear_11303_13160" x1="989.48" y1="-145.576" x2="876.549" y2="149.321" gradientUnits="userSpaceOnUse">
<stop stop-color="white" stop-opacity="0.2"/>
<stop offset="0.463542" stop-color="#EF4E23" stop-opacity="0.2"/>
<stop offset="1" stop-color="#EF4E23" stop-opacity="0"/>
</linearGradient>
<linearGradient id="paint32_linear_11303_13160" x1="995.181" y1="-158.73" x2="883.696" y2="132.39" gradientUnits="userSpaceOnUse">
<stop stop-color="white" stop-opacity="0.2"/>
<stop offset="0.463542" stop-color="#EF4E23" stop-opacity="0.2"/>
<stop offset="1" stop-color="#EF4E23" stop-opacity="0"/>
</linearGradient>
<clipPath id="clip0_11303_13160">
<rect width="900" height="900" fill="white"/>
</clipPath>
</defs>
</svg>
